<svg width="500" height="500" viewBox="0 0 500 500" fill="none" xmlns="http://www.w3.org/2000/svg">
<path d="M271.119 204.818C271.118 259.265 271.119 294.266 332.047 294.266V351.305H119.446V294.266C189.449 294.266 189.449 256.672 189.449 204.818H65V105H392.975V145.187" stroke="#64748B" stroke-width="24" stroke-linecap="round" stroke-linejoin="round"/>
<path d="M351.6 344.4C394.015 344.4 428.4 310.015 428.4 267.6C428.4 225.184 394.015 190.8 351.6 190.8C309.184 190.8 274.8 225.184 274.8 267.6C274.8 310.015 309.184 344.4 351.6 344.4Z" fill="#243041" stroke="#F5F5F5" stroke-width="15" stroke-linecap="round" stroke-linejoin="round"/>
<path d="M447.6 363.6L406.32 322.32" stroke="#F5F5F5" stroke-width="15" stroke-linecap="round" stroke-linejoin="round"/>
<path d="M380.706 240.235L324.235 296.706" stroke="#64748B" stroke-width="10" stroke-linecap="round" stroke-linejoin="round"/>
<path d="M324.235 240.235L380.706 296.706" stroke="#64748B" stroke-width="10" stroke-linecap="round" stroke-linejoin="round"/>
</svg>
