<svg width="395" height="103" viewBox="0 0 395 103" fill="none" xmlns="http://www.w3.org/2000/svg">
<g clip-path="url(#clip0_1189_18)">
<path d="M76.25 44.0833C76.2499 61.5833 76.25 72.8333 95.8333 72.8333V91.1667H27.5V72.8333C50 72.8333 50 60.75 50 44.0833H10V12H115.417V24.9167" stroke="#64748B" stroke-width="10" stroke-linecap="round" stroke-linejoin="round"/>
<path d="M128.818 94.6591C125.152 94.6591 122 93.9091 119.364 92.4091C116.742 90.8939 114.72 88.7879 113.295 86.0909C111.886 83.3788 111.182 80.2348 111.182 76.6591C111.182 73.0682 111.886 69.9242 113.295 67.2273C114.72 64.5152 116.742 62.4091 119.364 60.9091C122 59.3939 125.152 58.6364 128.818 58.6364C132.485 58.6364 135.629 59.3939 138.25 60.9091C140.886 62.4091 142.909 64.5152 144.318 67.2273C145.742 69.9242 146.455 73.0682 146.455 76.6591C146.455 80.2348 145.742 83.3788 144.318 86.0909C142.909 88.7879 140.886 90.8939 138.25 92.4091C135.629 93.9091 132.485 94.6591 128.818 94.6591ZM128.886 86.2727C130.22 86.2727 131.348 85.8636 132.273 85.0455C133.197 84.2273 133.902 83.0909 134.386 81.6364C134.886 80.1818 135.136 78.5 135.136 76.5909C135.136 74.6515 134.886 72.9545 134.386 71.5C133.902 70.0455 133.197 68.9091 132.273 68.0909C131.348 67.2727 130.22 66.8636 128.886 66.8636C127.508 66.8636 126.341 67.2727 125.386 68.0909C124.447 68.9091 123.727 70.0455 123.227 71.5C122.742 72.9545 122.5 74.6515 122.5 76.5909C122.5 78.5 122.742 80.1818 123.227 81.6364C123.727 83.0909 124.447 84.2273 125.386 85.0455C126.341 85.8636 127.508 86.2727 128.886 86.2727ZM168.443 94.6591C164.777 94.6591 161.625 93.9091 158.989 92.4091C156.367 90.8939 154.345 88.7879 152.92 86.0909C151.511 83.3788 150.807 80.2348 150.807 76.6591C150.807 73.0682 151.511 69.9242 152.92 67.2273C154.345 64.5152 156.367 62.4091 158.989 60.9091C161.625 59.3939 164.777 58.6364 168.443 58.6364C172.11 58.6364 175.254 59.3939 177.875 60.9091C180.511 62.4091 182.534 64.5152 183.943 67.2273C185.367 69.9242 186.08 73.0682 186.08 76.6591C186.08 80.2348 185.367 83.3788 183.943 86.0909C182.534 88.7879 180.511 90.8939 177.875 92.4091C175.254 93.9091 172.11 94.6591 168.443 94.6591ZM168.511 86.2727C169.845 86.2727 170.973 85.8636 171.898 85.0455C172.822 84.2273 173.527 83.0909 174.011 81.6364C174.511 80.1818 174.761 78.5 174.761 76.5909C174.761 74.6515 174.511 72.9545 174.011 71.5C173.527 70.0455 172.822 68.9091 171.898 68.0909C170.973 67.2727 169.845 66.8636 168.511 66.8636C167.133 66.8636 165.966 67.2727 165.011 68.0909C164.072 68.9091 163.352 70.0455 162.852 71.5C162.367 72.9545 162.125 74.6515 162.125 76.5909C162.125 78.5 162.367 80.1818 162.852 81.6364C163.352 83.0909 164.072 84.2273 165.011 85.0455C165.966 85.8636 167.133 86.2727 168.511 86.2727ZM202.886 47.4545V94H191.773V47.4545H202.886ZM235.119 61.4091C234.968 59.7424 234.294 58.447 233.097 57.5227C231.915 56.5833 230.225 56.1136 228.028 56.1136C226.574 56.1136 225.362 56.303 224.392 56.6818C223.422 57.0606 222.695 57.5833 222.21 58.25C221.725 58.9015 221.475 59.6515 221.46 60.5C221.43 61.197 221.566 61.8106 221.869 62.3409C222.188 62.8712 222.642 63.3409 223.233 63.75C223.839 64.1439 224.566 64.4924 225.415 64.7955C226.263 65.0985 227.218 65.3636 228.278 65.5909L232.278 66.5C234.581 67 236.612 67.6667 238.369 68.5C240.142 69.3333 241.627 70.3258 242.824 71.4773C244.036 72.6288 244.953 73.9545 245.574 75.4545C246.195 76.9545 246.513 78.6364 246.528 80.5C246.513 83.4394 245.771 85.9621 244.301 88.0682C242.831 90.1742 240.718 91.7879 237.96 92.9091C235.218 94.0303 231.907 94.5909 228.028 94.5909C224.134 94.5909 220.741 94.0076 217.847 92.8409C214.953 91.6742 212.703 89.9015 211.097 87.5227C209.491 85.1439 208.665 82.1364 208.619 78.5H219.392C219.483 80 219.884 81.25 220.597 82.25C221.309 83.25 222.286 84.0076 223.528 84.5227C224.786 85.0379 226.241 85.2955 227.892 85.2955C229.407 85.2955 230.695 85.0909 231.756 84.6818C232.831 84.2727 233.657 83.7045 234.233 82.9773C234.809 82.25 235.104 81.4167 235.119 80.4773C235.104 79.5985 234.831 78.8485 234.301 78.2273C233.771 77.5909 232.953 77.0455 231.847 76.5909C230.756 76.1212 229.362 75.6894 227.665 75.2955L222.801 74.1591C218.771 73.2348 215.597 71.7424 213.278 69.6818C210.96 67.6061 209.809 64.803 209.824 61.2727C209.809 58.3939 210.581 55.8712 212.142 53.7045C213.703 51.5379 215.862 49.8485 218.619 48.6364C221.377 47.4242 224.521 46.8182 228.051 46.8182C231.657 46.8182 234.786 47.4318 237.438 48.6591C240.104 49.8712 242.172 51.5758 243.642 53.7727C245.112 55.9697 245.862 58.5151 245.892 61.4091H235.119ZM252.21 94V59.0909H262.778V65.5H263.165C263.892 63.3788 265.119 61.7045 266.847 60.4773C268.574 59.25 270.634 58.6364 273.028 58.6364C275.453 58.6364 277.528 59.2576 279.256 60.5C280.983 61.7424 282.081 63.4091 282.551 65.5H282.915C283.566 63.4242 284.839 61.7652 286.733 60.5227C288.627 59.2652 290.862 58.6364 293.438 58.6364C296.741 58.6364 299.422 59.697 301.483 61.8182C303.544 63.9242 304.574 66.8182 304.574 70.5V94H293.46V73.0455C293.46 71.303 293.013 69.9773 292.119 69.0682C291.225 68.1439 290.066 67.6818 288.642 67.6818C287.112 67.6818 285.907 68.1818 285.028 69.1818C284.165 70.1667 283.733 71.4924 283.733 73.1591V94H273.051V72.9318C273.051 71.3106 272.612 70.0303 271.733 69.0909C270.854 68.1515 269.695 67.6818 268.256 67.6818C267.286 67.6818 266.43 67.9167 265.688 68.3864C264.945 68.8409 264.362 69.4924 263.938 70.3409C263.528 71.1894 263.324 72.1894 263.324 73.3409V94H252.21ZM311.46 94V59.0909H322.574V94H311.46ZM317.028 55.0227C315.468 55.0227 314.127 54.5076 313.006 53.4773C311.884 52.4318 311.324 51.1742 311.324 49.7045C311.324 48.25 311.884 47.0076 313.006 45.9773C314.127 44.9318 315.468 44.4091 317.028 44.4091C318.604 44.4091 319.945 44.9318 321.051 45.9773C322.172 47.0076 322.733 48.25 322.733 49.7045C322.733 51.1742 322.172 52.4318 321.051 53.4773C319.945 54.5076 318.604 55.0227 317.028 55.0227ZM349.352 59.0909V67.2727H327.33V59.0909H349.352ZM331.943 50.7273H343.057V83.0227C343.057 83.7045 343.163 84.2576 343.375 84.6818C343.602 85.0909 343.928 85.3864 344.352 85.5682C344.777 85.7348 345.284 85.8182 345.875 85.8182C346.299 85.8182 346.746 85.7803 347.216 85.7045C347.701 85.6136 348.064 85.5379 348.307 85.4773L349.989 93.5C349.458 93.6515 348.708 93.8409 347.739 94.0682C346.784 94.2955 345.64 94.4394 344.307 94.5C341.701 94.6212 339.466 94.3182 337.602 93.5909C335.754 92.8485 334.337 91.697 333.352 90.1364C332.383 88.5758 331.913 86.6136 331.943 84.25V50.7273ZM366.886 74.0909V94H355.773V47.4545H366.523V65.5H366.909C367.697 63.3485 368.985 61.6667 370.773 60.4545C372.576 59.2424 374.78 58.6364 377.386 58.6364C379.841 58.6364 381.977 59.1818 383.795 60.2727C385.614 61.3485 387.023 62.8712 388.023 64.8409C389.038 66.8106 389.538 69.1136 389.523 71.75V94H378.409V73.9318C378.424 71.9924 377.939 70.4773 376.955 69.3864C375.97 68.2955 374.583 67.75 372.795 67.75C371.629 67.75 370.598 68.0076 369.705 68.5227C368.826 69.0227 368.136 69.7424 367.636 70.6818C367.152 71.6212 366.902 72.7576 366.886 74.0909Z" fill="#F5F5F5"/>
</g>
<defs>
<clipPath id="clip0_1189_18">
<rect width="395" height="103" fill="white"/>
</clipPath>
</defs>
</svg>
